# xmcd
#
# Track frame offsets:
#        150
#        15410
#        36775
#        61590
#        74440
#        95182
#        119432
#        134550
#        152460
#        177290
#        191512
#        199020
#        220600
#
# Disc length: 3248 seconds
#
# Revision: 2
# Processed by: cddbd v1.5.1PL0 Copyright (c) Steve Scherf et al.
# Submitted via: ExactAudioCopy v0.95a5
#
DISCID=b10cae0d
DTITLE=Boyz II Men - Yo Te Voy A Amar
DYEAR=1900
DGENRE=
TTITLE0=No Dejemos Que Muera El Amor
TTITLE1=Yo Te Voy A Amar
TTITLE2=Me Rindo Ante Ti
TTITLE3=Yesterday (Spanish Version)
TTITLE4=Thank You
TTITLE5=Trying Times
TTITLE6=Water Runs Dry
TTITLE7=I'll Make Love To You
TTITLE8=On Bended Knee
TTITLE9=Yesterday
TTITLE10=Khalil (Interlude)
TTITLE11=U Know
TTITLE12=50 Candles
EXTD=
EXTT0=
EXTT1=
EXTT2=
EXTT3=
EXTT4=
EXTT5=
EXTT6=
EXTT7=
EXTT8=
EXTT9=
EXTT10=
EXTT11=
EXTT12=
PLAYORDER=
